<svg width="125" height="32" viewBox="0 0 125 32" fill="none" xmlns="http://www.w3.org/2000/svg">
<path d="M16 32C24.8366 32 32 24.8366 32 16C32 7.16344 24.8366 0 16 0C7.16344 0 0 7.16344 0 16C0 24.8366 7.16344 32 16 32Z" fill="#CDCDCD"/>
<path d="M17.1095 31.5121C25.8016 31.5121 32.8479 24.4658 32.8479 15.7737C32.8479 7.08166 25.8016 0.0353394 17.1095 0.0353394C8.41742 0.0353394 1.37109 7.08166 1.37109 15.7737C1.37109 24.4658 8.41742 31.5121 17.1095 31.5121Z" fill="black"/>
<path d="M6.92236 19.3513C4.32758 11.9558 7.5799 3.92398 14.2542 0.296936C13.427 0.445411 12.6069 0.657516 11.7938 0.940327C3.57813 3.82499 -0.741802 12.8184 2.14286 21.0269C5.02753 29.2426 14.0209 33.5625 22.2295 30.6778C23.0426 30.395 23.8203 30.0415 24.5556 29.6456C17.0753 30.9889 9.51715 26.7468 6.92236 19.3513Z" fill="white"/>
<path d="M46.8477 21.4724V4.41891H51.811V21.0482C51.811 22.7733 52.8715 23.5298 54.5401 23.5298C54.9997 23.5298 55.4946 23.4662 55.8481 23.3814V27.0367C55.2825 27.1852 54.1442 27.3054 53.0129 27.3054C49.1879 27.3054 46.8477 25.3398 46.8477 21.4724Z" fill="white"/>
<path d="M77.2207 27.0932V11.4326H81.6891V13.2143C82.6436 11.9134 84.2768 10.9448 86.9352 10.9448C90.9016 10.9448 93.348 13.4547 93.348 17.2656V27.0932H88.3846V17.1454C88.3846 15.696 87.0766 14.6354 85.4081 14.6354C83.5274 14.6354 82.184 15.696 82.184 17.1454V27.0932H77.2207Z" fill="white"/>
<path d="M102.773 17.9373H106.103V17.4848C106.103 15.7313 104.718 14.5789 102.349 14.5789C100.468 14.5789 99.2311 15.1516 98.0221 16.1485L95.7172 13.3699C97.4211 11.8003 99.8321 10.9518 103.021 10.9518C107.807 10.9518 110.784 13.4335 110.784 17.3929V27.1003H106.103V26.6761C106.103 26.3438 106.103 25.7075 106.139 25.3469H105.997C105.326 26.6478 103.586 27.5811 101.069 27.5811C97.7039 27.5811 95.293 25.6792 95.293 22.745C95.293 19.7826 98.2342 17.9373 102.773 17.9373ZM106.103 22.0804V20.7229H103.056C101.246 20.7229 100.221 21.4512 100.221 22.5966C100.221 23.749 101.034 24.4702 102.703 24.4702C104.654 24.4631 106.103 23.2541 106.103 22.0804Z" fill="white"/>
<path d="M124.041 11.3124V15.0596C123.511 14.9112 122.733 14.8758 122.16 14.8758C120.421 14.8758 118.866 15.5687 118.866 17.3575V27.0932H113.902V11.4326H118.371V13.3699C119.078 12.1326 120.287 11.1357 122.302 11.1357C123.009 11.1357 123.645 11.1922 124.041 11.3124Z" fill="white"/>
<path d="M73.8921 11.4326V27.0932H69.4237V25.3681C68.5046 26.6407 66.8713 27.574 64.2483 27.574C60.2465 27.574 57.9062 25.0641 57.9062 21.2532V11.4255H62.8696V21.3734C62.8696 22.8228 64.1069 23.8197 65.7755 23.8197C67.6561 23.8197 68.9288 22.8228 68.9288 21.3734V11.4255H73.8921V11.4326Z" fill="white"/>
</svg>
